DinishExpanded-Italic.ufo
<glyph name="parenright" format="2">
  <advance width="318"/>
  <unicode hex="0029"/>
  <outline>
    <contour>
      <point x="167" y="219"/>
      <point x="190" y="332" type="qcurve" smooth="yes"/>
      <point x="208" y="418"/>
      <point x="209" y="503" type="qcurve" smooth="yes"/>
      <point x="209" y="639"/>
      <point x="161" y="758" type="qcurve"/>
      <point x="227" y="758" type="line"/>
      <point x="294" y="629"/>
      <point x="294" y="478" type="qcurve" smooth="yes"/>
      <point x="294" y="405"/>
      <point x="279" y="332" type="qcurve" smooth="yes"/>
      <point x="255" y="218"/>
      <point x="138" y="5"/>
      <point x="49" y="-86" type="qcurve"/>
      <point x="-18" y="-86" type="line"/>
      <point x="60" y="4"/>
    </contour>
  </outline>
</glyph>
<glyph name="slash" format="2">
  <advance width="442"/>
  <unicode hex="002F"/>
  <outline>
    <contour>
      <point x="407" y="708" type="line"/>
      <point x="482" y="708" type="line"/>
      <point x="74" y="-10" type="line"/>
      <point x="-2" y="-10" type="line"/>
    </contour>
  </outline>
</glyph>
<glyph name="one.tosf" format="2">
  <advance width="562"/>
  <unicode hex="0031"/>
  <outline>
    <contour>
      <point x="339" y="430" type="line"/>
      <point x="121" y="336" type="line"/>
      <point x="141" y="435" type="line"/>
      <point x="360" y="533" type="line"/>
      <point x="453" y="533" type="line"/>
      <point x="342" y="0" type="line"/>
      <point x="250" y="0" type="line"/>
    </contour>
  </outline>
</glyph>
<glyph name="two" format="2">
  <advance width="538"/>
  <unicode hex="0032"/>
  <outline>
    <contour>
      <point x="18" y="75" type="line"/>
      <point x="348" y="383" type="line" smooth="yes"/>
      <point x="385" y="416"/>
      <point x="430" y="474"/>
      <point x="438" y="503" type="qcurve" smooth="yes"/>
      <point x="445" y="531"/>
      <point x="445" y="550" type="qcurve" smooth="yes"/>
      <point x="445" y="591"/>
      <point x="390" y="636"/>
      <point x="340" y="636" type="qcurve" smooth="yes"/>
      <point x="285" y="636"/>
      <point x="214" y="582"/>
      <point x="204" y="530" type="qcurve" smooth="yes"/>
      <point x="201" y="513" type="line"/>
      <point x="110" y="513" type="line"/>
      <point x="114" y="535" type="line" smooth="yes"/>
      <point x="129" y="621"/>
      <point x="249" y="717"/>
      <point x="345" y="717" type="qcurve" smooth="yes"/>
      <point x="435" y="717"/>
      <point x="541" y="632"/>
      <point x="541" y="558" type="qcurve" smooth="yes"/>
      <point x="541" y="534"/>
      <point x="529" y="494" type="qcurve" smooth="yes"/>
      <point x="518" y="452"/>
      <point x="458" y="374"/>
      <point x="403" y="324" type="qcurve" smooth="yes"/>
      <point x="151" y="82" type="line"/>
      <point x="444" y="82" type="line"/>
      <point x="427" y="0" type="line"/>
      <point x="2" y="0" type="line"/>
    </contour>
  </outline>
</glyph>
<glyph name="two.tosf" format="2">
  <advance width="562"/>
  <unicode hex="0032"/>
  <outline>
    <contour>
      <point x="27" y="75" type="line"/>
      <point x="325" y="257" type="line" smooth="yes"/>
      <point x="375" y="287"/>
      <point x="415" y="342"/>
      <point x="421" y="372" type="qcurve" smooth="yes"/>
      <point x="423" y="381" type="line" smooth="yes"/>
      <point x="430" y="412"/>
      <point x="376" y="449"/>
      <point x="317" y="449" type="qcurve" smooth="yes"/>
      <point x="260" y="449"/>
      <point x="187" y="413"/>
      <point x="179" y="378" type="qcurve" smooth="yes"/>
      <point x="177" y="369" type="line"/>
      <point x="87" y="369" type="line"/>
      <point x="90" y="384" type="line" smooth="yes"/>
      <point x="104" y="453"/>
      <point x="236" y="533"/>
      <point x="333" y="533" type="qcurve" smooth="yes"/>
      <point x="399" y="533"/>
      <point x="488" y="496"/>
      <point x="526" y="428"/>
      <point x="517" y="383" type="qcurve" smooth="yes"/>
      <point x="514" y="371" type="line" smooth="yes"/>
      <point x="505" y="329"/>
      <point x="452" y="252"/>
      <point x="389" y="217" type="qcurve" smooth="yes"/>
      <point x="151" y="82" type="line"/>
      <point x="460" y="82" type="line"/>
      <point x="443" y="0" type="line"/>
      <point x="11" y="0" type="line"/>
    </contour>
  </outline>
</glyph>
<glyph name="five" format="2">
  <advance width="546"/>
  <unicode hex="0035"/>
  <outline>
    <contour>
      <point x="39" y="63"/>
      <point x="39" y="130" type="qcurve" smooth="yes"/>
      <point x="39" y="152"/>
      <point x="43" y="172" type="qcurve"/>
      <point x="132" y="172" type="line"/>
      <point x="131" y="154" type="line" smooth="yes"/>
      <point x="131" y="113"/>
      <point x="184" y="71"/>
      <point x="233" y="71" type="qcurve" smooth="yes"/>
      <point x="353" y="71"/>
      <point x="379" y="201" type="qcurve" smooth="yes"/>
      <point x="387" y="240" type="line" smooth="yes"/>
      <point x="392" y="262"/>
      <point x="392" y="290" type="qcurve" smooth="yes"/>
      <point x="392" y="336"/>
      <point x="341" y="384"/>
      <point x="292" y="384" type="qcurve" smooth="yes"/>
      <point x="251" y="384"/>
      <point x="187" y="347"/>
      <point x="169" y="314" type="qcurve"/>
      <point x="84" y="314" type="line"/>
      <point x="167" y="707" type="line"/>
      <point x="553" y="707" type="line"/>
      <point x="536" y="624" type="line"/>
      <point x="232" y="624" type="line"/>
      <point x="187" y="415" type="line"/>
      <point x="209" y="437"/>
      <point x="279" y="463"/>
      <point x="321" y="463" type="qcurve" smooth="yes"/>
      <point x="401" y="463"/>
      <point x="487" y="379"/>
      <point x="487" y="302" type="qcurve" smooth="yes"/>
      <point x="487" y="271"/>
      <point x="480" y="240" type="qcurve" smooth="yes"/>
      <point x="471" y="196" type="line" smooth="yes"/>
      <point x="451" y="95"/>
      <point x="324" y="-10"/>
      <point x="224" y="-10" type="qcurve" smooth="yes"/>
      <point x="136" y="-10"/>
    </contour>
  </outline>
</glyph>
<glyph name="five.tosf" format="2">
  <advance width="562"/>
  <unicode hex="0035"/>
  <outline>
    <contour>
      <point x="-3" y="-76"/>
      <point x="14" y="3" type="qcurve" smooth="yes"/>
      <point x="15" y="11" type="line"/>
      <point x="105" y="11" type="line"/>
      <point x="104" y="6" type="line" smooth="yes"/>
      <point x="95" y="-37"/>
      <point x="144" y="-94"/>
      <point x="203" y="-94" type="qcurve" smooth="yes"/>
      <point x="327" y="-94"/>
      <point x="356" y="44" type="qcurve" smooth="yes"/>
      <point x="362" y="72" type="line" smooth="yes"/>
      <point x="376" y="141"/>
      <point x="330" y="211"/>
      <point x="270" y="211" type="qcurve" smooth="yes"/>
      <point x="230" y="211"/>
      <point x="165" y="175"/>
      <point x="144" y="141" type="qcurve"/>
      <point x="54" y="141" type="line"/>
      <point x="134" y="523" type="line"/>
      <point x="529" y="523" type="line"/>
      <point x="511" y="440" type="line"/>
      <point x="199" y="440" type="line"/>
      <point x="158" y="241" type="line"/>
      <point x="187" y="265"/>
      <point x="264" y="292"/>
      <point x="304" y="292" type="qcurve" smooth="yes"/>
      <point x="397" y="292"/>
      <point x="476" y="179"/>
      <point x="455" y="76" type="qcurve" smooth="yes"/>
      <point x="447" y="40" type="line" smooth="yes"/>
      <point x="426" y="-62"/>
      <point x="288" y="-176"/>
      <point x="184" y="-176" type="qcurve" smooth="yes"/>
      <point x="85" y="-176"/>
    </contour>
  </outline>
</glyph>
<glyph name="equal" format="2">
  <advance width="527"/>
  <unicode hex="003D"/>
  <outline>
    <contour>
      <point x="58" y="425" type="line"/>
      <point x="476" y="425" type="line"/>
      <point x="476" y="342" type="line"/>
      <point x="58" y="342" type="line"/>
    </contour>
    <contour>
      <point x="58" y="223" type="line"/>
      <point x="476" y="223" type="line"/>
      <point x="476" y="140" type="line"/>
      <point x="58" y="140" type="line"/>
    </contour>
  </outline>
</glyph>
<glyph name="greater" format="2">
  <advance width="527"/>
  <unicode hex="003E"/>
  <outline>
    <contour>
      <point x="72" y="163" type="line"/>
      <point x="375" y="282" type="line"/>
      <point x="72" y="401" type="line"/>
      <point x="72" y="487" type="line"/>
      <point x="489" y="319" type="line"/>
      <point x="489" y="246" type="line"/>
      <point x="72" y="77" type="line"/>
    </contour>
  </outline>
</glyph>
<glyph name="at" format="2">
  <advance width="891"/>
  <unicode hex="0040"/>
  <outline>
    <contour>
      <point x="125" y="-61"/>
      <point x="44" y="73"/>
      <point x="44" y="164" type="qcurve" smooth="yes"/>
      <point x="44" y="207"/>
      <point x="54" y="254" type="qcurve" smooth="yes"/>
      <point x="69" y="325" type="line" smooth="yes"/>
      <point x="108" y="507"/>
      <point x="343" y="709"/>
      <point x="520" y="709" type="qcurve" smooth="yes"/>
      <point x="621" y="709"/>
      <point x="776" y="635"/>
      <point x="860" y="501"/>
      <point x="860" y="412" type="qcurve" smooth="yes"/>
      <point x="860" y="373"/>
      <point x="851" y="328" type="qcurve" smooth="yes"/>
      <point x="836" y="258" type="line" smooth="yes"/>
      <point x="816" y="159"/>
      <point x="706" y="56"/>
      <point x="635" y="56" type="qcurve" smooth="yes"/>
      <point x="592" y="56"/>
      <point x="537" y="94"/>
      <point x="526" y="128" type="qcurve"/>
      <point x="504" y="93"/>
      <point x="434" y="56"/>
      <point x="389" y="56" type="qcurve" smooth="yes"/>
      <point x="327" y="56"/>
      <point x="260" y="124"/>
      <point x="260" y="183" type="qcurve" smooth="yes"/>
      <point x="260" y="210"/>
      <point x="266" y="242" type="qcurve" smooth="yes"/>
      <point x="285" y="327" type="line" smooth="yes"/>
      <point x="324" y="513"/>
      <point x="468" y="513" type="qcurve" smooth="yes"/>
      <point x="544" y="513"/>
      <point x="574" y="458" type="qcurve"/>
      <point x="583" y="503" type="line"/>
      <point x="664" y="503" type="line"/>
      <point x="601" y="208" type="line" smooth="yes"/>
      <point x="598" y="192"/>
      <point x="598" y="180" type="qcurve" smooth="yes"/>
      <point x="598" y="152"/>
      <point x="626" y="126"/>
      <point x="649" y="126" type="qcurve" smooth="yes"/>
      <point x="685" y="126"/>
      <point x="734" y="186"/>
      <point x="750" y="257" type="qcurve" smooth="yes"/>
      <point x="765" y="327" type="line" smooth="yes"/>
      <point x="775" y="373"/>
      <point x="775" y="413" type="qcurve" smooth="yes"/>
      <point x="775" y="515"/>
      <point x="641" y="633"/>
      <point x="517" y="633" type="qcurve" smooth="yes"/>
      <point x="370" y="633"/>
      <point x="186" y="476"/>
      <point x="155" y="327" type="qcurve" smooth="yes"/>
      <point x="140" y="257" type="line" smooth="yes"/>
      <point x="130" y="212"/>
      <point x="130" y="170" type="qcurve" smooth="yes"/>
      <point x="130" y="65"/>
      <point x="261" y="-56"/>
      <point x="382" y="-56" type="qcurve" smooth="yes"/>
      <point x="447" y="-56"/>
      <point x="554" y="-31"/>
      <point x="610" y="-4" type="qcurve"/>
      <point x="635" y="-71" type="line"/>
      <point x="572" y="-104"/>
      <point x="447" y="-133"/>
      <point x="375" y="-133" type="qcurve" smooth="yes"/>
      <point x="274" y="-133"/>
    </contour>
    <contour>
      <point x="513" y="187"/>
      <point x="525" y="243" type="qcurve" smooth="yes"/>
      <point x="544" y="328" type="line" smooth="yes"/>
      <point x="549" y="348"/>
      <point x="549" y="371" type="qcurve" smooth="yes"/>
      <point x="549" y="443"/>
      <point x="481" y="442" type="qcurve" smooth="yes"/>
      <point x="391" y="442"/>
      <point x="368" y="326" type="qcurve" smooth="yes"/>
      <point x="350" y="248" type="line" smooth="yes"/>
      <point x="345" y="217"/>
      <point x="345" y="200" type="qcurve" smooth="yes"/>
      <point x="345" y="127"/>
      <point x="414" y="127" type="qcurve" smooth="yes"/>
      <point x="460" y="127"/>
    </contour>
  </outline>
</glyph>
<glyph name="E" format="2">
  <advance width="618"/>
  <unicode hex="0045"/>
  <outline>
    <contour>
      <point x="246" y="624" type="line"/>
      <point x="198" y="399" type="line"/>
      <point x="540" y="399" type="line"/>
      <point x="522" y="317" type="line"/>
      <point x="180" y="317" type="line"/>
      <point x="130" y="83" type="line"/>
      <point x="528" y="83" type="line"/>
      <point x="510" y="0" type="line"/>
      <point x="19" y="0" type="line"/>
      <point x="170" y="707" type="line"/>
      <point x="660" y="707" type="line"/>
      <point x="643" y="624" type="line"/>
    </contour>
  </outline>
</glyph>
<glyph name="G" format="2">
  <advance width="689"/>
  <unicode hex="0047"/>
  <outline>
    <contour>
      <point x="61" y="104"/>
      <point x="61" y="214" type="qcurve" smooth="yes"/>
      <point x="61" y="255"/>
      <point x="71" y="302" type="qcurve" smooth="yes"/>
      <point x="96" y="420" type="line" smooth="yes"/>
      <point x="128" y="574"/>
      <point x="295" y="718"/>
      <point x="430" y="718" type="qcurve" smooth="yes"/>
      <point x="546" y="718"/>
      <point x="676" y="614"/>
      <point x="676" y="524" type="qcurve" smooth="yes"/>
      <point x="676" y="515"/>
      <point x="674" y="486" type="qcurve"/>
      <point x="582" y="486" type="line"/>
      <point x="582" y="512" type="line" smooth="yes"/>
      <point x="582" y="570"/>
      <point x="501" y="635"/>
      <point x="424" y="635" type="qcurve" smooth="yes"/>
      <point x="327" y="635"/>
      <point x="213" y="530"/>
      <point x="187" y="414" type="qcurve" smooth="yes"/>
      <point x="163" y="299" type="line" smooth="yes"/>
      <point x="154" y="258"/>
      <point x="154" y="222" type="qcurve" smooth="yes"/>
      <point x="154" y="148"/>
      <point x="241" y="74"/>
      <point x="323" y="74" type="qcurve" smooth="yes"/>
      <point x="406" y="74"/>
      <point x="512" y="153"/>
      <point x="529" y="234" type="qcurve" smooth="yes"/>
      <point x="541" y="288" type="line"/>
      <point x="352" y="288" type="line"/>
      <point x="370" y="367" type="line"/>
      <point x="649" y="367" type="line"/>
      <point x="624" y="241" type="line" smooth="yes"/>
      <point x="597" y="114"/>
      <point x="438" y="-10"/>
      <point x="317" y="-10" type="qcurve" smooth="yes"/>
      <point x="199" y="-10"/>
    </contour>
  </outline>
</glyph>
<glyph name="K" format="2">
  <advance width="680"/>
  <unicode hex="004B"/>
  <outline>
    <contour>
      <point x="416" y="422" type="line"/>
      <point x="617" y="0" type="line"/>
      <point x="512" y="0" type="line"/>
      <point x="347" y="360" type="line"/>
      <point x="154" y="190" type="line"/>
      <point x="113" y="0" type="line"/>
      <point x="19" y="0" type="line"/>
      <point x="170" y="707" type="line"/>
      <point x="263" y="707" type="line"/>
      <point x="180" y="317" type="line"/>
      <point x="615" y="707" type="line"/>
      <point x="740" y="707" type="line"/>
    </contour>
  </outline>
</glyph>
<glyph name="P" format="2">
  <advance width="651"/>
  <unicode hex="0050"/>
  <outline>
    <contour>
      <point x="673" y="618"/>
      <point x="673" y="532" type="qcurve" smooth="yes"/>
      <point x="673" y="457"/>
      <point x="603" y="345"/>
      <point x="476" y="283"/>
      <point x="391" y="283" type="qcurve" smooth="yes"/>
      <point x="173" y="283" type="line"/>
      <point x="113" y="0" type="line"/>
      <point x="19" y="0" type="line"/>
      <point x="170" y="705" type="line"/>
      <point x="466" y="705" type="line" smooth="yes"/>
      <point x="567" y="705"/>
    </contour>
    <contour>
      <point x="580" y="446"/>
      <point x="580" y="521" type="qcurve" smooth="yes"/>
      <point x="580" y="573"/>
      <point x="515" y="622"/>
      <point x="450" y="622" type="qcurve" smooth="yes"/>
      <point x="245" y="622" type="line"/>
      <point x="190" y="365" type="line"/>
      <point x="393" y="365" type="line" smooth="yes"/>
      <point x="480" y="365"/>
    </contour>
  </outline>
</glyph>
<glyph name="underscore" format="2">
  <advance width="542"/>
  <unicode hex="005F"/>
  <outline>
    <contour>
      <point x="-66" y="-51" type="line"/>
      <point x="477" y="-51" type="line"/>
      <point x="464" y="-112" type="line"/>
      <point x="-80" y="-112" type="line"/>
    </contour>
  </outline>
</glyph>
<glyph name="e" format="2">
  <advance width="571"/>
  <unicode hex="0065"/>
  <outline>
    <contour>
      <point x="528" y="441"/>
      <point x="528" y="356" type="qcurve" smooth="yes"/>
      <point x="528" y="321"/>
      <point x="521" y="287" type="qcurve" smooth="yes"/>
      <point x="513" y="242" type="line"/>
      <point x="139" y="242" type="line"/>
      <point x="132" y="212"/>
      <point x="132" y="183" type="qcurve" smooth="yes"/>
      <point x="132" y="123"/>
      <point x="202" y="68"/>
      <point x="262" y="68" type="qcurve" smooth="yes"/>
      <point x="319" y="68"/>
      <point x="392" y="117"/>
      <point x="404" y="165" type="qcurve"/>
      <point x="493" y="165" type="line"/>
      <point x="476" y="81"/>
      <point x="352" y="-9"/>
      <point x="257" y="-9" type="qcurve" smooth="yes"/>
      <point x="162" y="-9"/>
      <point x="45" y="85"/>
      <point x="45" y="177" type="qcurve" smooth="yes"/>
      <point x="45" y="210"/>
      <point x="53" y="251" type="qcurve" smooth="yes"/>
      <point x="65" y="306" type="line" smooth="yes"/>
      <point x="88" y="419"/>
      <point x="222" y="532"/>
      <point x="326" y="532" type="qcurve" smooth="yes"/>
      <point x="420" y="532"/>
    </contour>
    <contour>
      <point x="444" y="356" type="qcurve" smooth="yes"/>
      <point x="444" y="405"/>
      <point x="379" y="456"/>
      <point x="321" y="456" type="qcurve" smooth="yes"/>
      <point x="255" y="456"/>
      <point x="168" y="385"/>
      <point x="152" y="305" type="qcurve"/>
      <point x="438" y="305" type="line"/>
      <point x="440" y="318" type="line" smooth="yes"/>
      <point x="444" y="338"/>
    </contour>
  </outline>
</glyph>
<glyph name="h" format="2">
  <advance width="584"/>
  <unicode hex="0068"/>
  <outline>
    <contour>
      <point x="165" y="707" type="line"/>
      <point x="251" y="707" type="line"/>
      <point x="198" y="455" type="line"/>
      <point x="264" y="530"/>
      <point x="369" y="529" type="qcurve" smooth="yes"/>
      <point x="447" y="529"/>
      <point x="534" y="450"/>
      <point x="534" y="379" type="qcurve" smooth="yes"/>
      <point x="534" y="352"/>
      <point x="525" y="311" type="qcurve" smooth="yes"/>
      <point x="459" y="0" type="line"/>
      <point x="372" y="0" type="line"/>
      <point x="435" y="299" type="line" smooth="yes"/>
      <point x="442" y="339"/>
      <point x="442" y="357" type="qcurve" smooth="yes"/>
      <point x="442" y="403"/>
      <point x="386" y="452"/>
      <point x="335" y="452" type="qcurve" smooth="yes"/>
      <point x="268" y="452"/>
      <point x="180" y="370"/>
      <point x="164" y="294" type="qcurve" smooth="yes"/>
      <point x="101" y="0" type="line"/>
      <point x="14" y="0" type="line"/>
    </contour>
  </outline>
</glyph>
<glyph name="j" format="2">
  <advance width="243"/>
  <unicode hex="006A"/>
  <outline>
    <contour>
      <point x="171" y="712" type="line"/>
      <point x="261" y="712" type="line"/>
      <point x="241" y="616" type="line"/>
      <point x="151" y="616" type="line"/>
    </contour>
    <contour>
      <point x="-123" y="-80" type="line"/>
      <point x="-76" y="-80" type="line" smooth="yes"/>
      <point x="-32" y="-80"/>
      <point x="14" y="-42"/>
      <point x="24" y="3" type="qcurve" smooth="yes"/>
      <point x="134" y="523" type="line"/>
      <point x="221" y="523" type="line"/>
      <point x="109" y="-3" type="line" smooth="yes"/>
      <point x="92" y="-81"/>
      <point x="-1" y="-157"/>
      <point x="-80" y="-157" type="qcurve" smooth="yes"/>
      <point x="-139" y="-157" type="line"/>
    </contour>
  </outline>
</glyph>
<glyph name="l" format="2">
  <advance width="309"/>
  <unicode hex="006C"/>
  <outline>
    <contour>
      <point x="41" y="50"/>
      <point x="41" y="101" type="qcurve" smooth="yes"/>
      <point x="41" y="126"/>
      <point x="48" y="159" type="qcurve" smooth="yes"/>
      <point x="165" y="707" type="line"/>
      <point x="252" y="707" type="line"/>
      <point x="136" y="164" type="line" smooth="yes"/>
      <point x="131" y="142"/>
      <point x="131" y="126" type="qcurve" smooth="yes"/>
      <point x="131" y="100"/>
      <point x="163" y="78"/>
      <point x="199" y="78" type="qcurve" smooth="yes"/>
      <point x="246" y="78" type="line"/>
      <point x="230" y="0" type="line"/>
      <point x="170" y="0" type="line" smooth="yes"/>
      <point x="104" y="0"/>
    </contour>
  </outline>
</glyph>
<glyph name="s" format="2">
  <advance width="530"/>
  <unicode hex="0073"/>
  <outline>
    <contour>
      <point x="22" y="77"/>
      <point x="22" y="159" type="qcurve"/>
      <point x="103" y="159" type="line"/>
      <point x="104" y="67"/>
      <point x="237" y="67" type="qcurve" smooth="yes"/>
      <point x="304" y="67"/>
      <point x="382" y="116"/>
      <point x="382" y="160" type="qcurve" smooth="yes"/>
      <point x="382" y="191"/>
      <point x="340" y="218"/>
      <point x="294" y="224" type="qcurve" smooth="yes"/>
      <point x="218" y="234" type="line" smooth="yes"/>
      <point x="144" y="242"/>
      <point x="73" y="302"/>
      <point x="73" y="357" type="qcurve" smooth="yes"/>
      <point x="73" y="438"/>
      <point x="195" y="530"/>
      <point x="299" y="530" type="qcurve" smooth="yes"/>
      <point x="399" y="530"/>
      <point x="503" y="449"/>
      <point x="503" y="373" type="qcurve"/>
      <point x="421" y="373" type="line"/>
      <point x="421" y="460"/>
      <point x="293" y="460" type="qcurve" smooth="yes"/>
      <point x="231" y="460"/>
      <point x="159" y="411"/>
      <point x="159" y="370" type="qcurve" smooth="yes"/>
      <point x="159" y="343"/>
      <point x="198" y="314"/>
      <point x="241" y="309" type="qcurve" smooth="yes"/>
      <point x="318" y="299" type="line" smooth="yes"/>
      <point x="396" y="289"/>
      <point x="469" y="228"/>
      <point x="469" y="171" type="qcurve" smooth="yes"/>
      <point x="469" y="88"/>
      <point x="342" y="-6"/>
      <point x="232" y="-6" type="qcurve" smooth="yes"/>
      <point x="132" y="-6"/>
    </contour>
  </outline>
</glyph>
<glyph name="y" format="2">
  <advance width="520"/>
  <unicode hex="0079"/>
  <outline>
    <contour>
      <point x="563" y="523" type="line"/>
      <point x="214" y="-57" type="line" smooth="yes"/>
      <point x="184" y="-108"/>
      <point x="97" y="-157"/>
      <point x="35" y="-157" type="qcurve" smooth="yes"/>
      <point x="-9" y="-157" type="line"/>
      <point x="7" y="-78" type="line"/>
      <point x="47" y="-78" type="line" smooth="yes"/>
      <point x="90" y="-78"/>
      <point x="137" y="-52"/>
      <point x="156" y="-19" type="qcurve" smooth="yes"/>
      <point x="171" y="7" type="line"/>
      <point x="69" y="523" type="line"/>
      <point x="161" y="523" type="line"/>
      <point x="231" y="113" type="line"/>
      <point x="467" y="523" type="line"/>
    </contour>
  </outline>
</glyph>
<glyph name="braceleft" format="2">
  <advance width="388"/>
  <unicode hex="007B"/>
  <outline>
    <contour>
      <point x="90" y="-6" type="qcurve" smooth="yes"/>
      <point x="90" y="7"/>
      <point x="95" y="38" type="qcurve" smooth="yes"/>
      <point x="133" y="216" type="line" smooth="yes"/>
      <point x="136" y="234"/>
      <point x="136" y="248" type="qcurve" smooth="yes"/>
      <point x="136" y="275"/>
      <point x="102" y="298"/>
      <point x="62" y="299" type="qcurve"/>
      <point x="80" y="378" type="line"/>
      <point x="129" y="379"/>
      <point x="176" y="417"/>
      <point x="185" y="461" type="qcurve" smooth="yes"/>
      <point x="223" y="638" type="line" smooth="yes"/>
      <point x="236" y="699"/>
      <point x="308" y="758"/>
      <point x="370" y="758" type="qcurve" smooth="yes"/>
      <point x="438" y="758" type="line"/>
      <point x="422" y="683" type="line"/>
      <point x="377" y="683" type="line" smooth="yes"/>
      <point x="346" y="683"/>
      <point x="314" y="658"/>
      <point x="308" y="630" type="qcurve" smooth="yes"/>
      <point x="272" y="462" type="line" smooth="yes"/>
      <point x="260" y="406"/>
      <point x="219" y="351"/>
      <point x="181" y="338" type="qcurve"/>
      <point x="205" y="329"/>
      <point x="226" y="297"/>
      <point x="226" y="270" type="qcurve" smooth="yes"/>
      <point x="226" y="245"/>
      <point x="219" y="214" type="qcurve" smooth="yes"/>
      <point x="184" y="50" type="line" smooth="yes"/>
      <point x="180" y="31"/>
      <point x="180" y="22" type="qcurve" smooth="yes"/>
      <point x="180" y="5"/>
      <point x="205" y="-11"/>
      <point x="232" y="-11" type="qcurve" smooth="yes"/>
      <point x="274" y="-11" type="line"/>
      <point x="259" y="-86" type="line"/>
      <point x="195" y="-86" type="line" smooth="yes"/>
      <point x="90" y="-86"/>
    </contour>
  </outline>
</glyph>
<glyph name="braceright" format="2">
  <advance width="498"/>
  <unicode hex="007D"/>
  <outline>
    <contour>
      <point x="52" y="-11" type="line"/>
      <point x="97" y="-11" type="line" smooth="yes"/>
      <point x="129" y="-11"/>
      <point x="160" y="12"/>
      <point x="167" y="42" type="qcurve" smooth="yes"/>
      <point x="203" y="213" type="line" smooth="yes"/>
      <point x="215" y="270"/>
      <point x="255" y="324"/>
      <point x="293" y="337" type="qcurve"/>
      <point x="270" y="346"/>
      <point x="249" y="378"/>
      <point x="249" y="406" type="qcurve" smooth="yes"/>
      <point x="249" y="432"/>
      <point x="256" y="461" type="qcurve" smooth="yes"/>
      <point x="291" y="622" type="line" smooth="yes"/>
      <point x="294" y="637"/>
      <point x="294" y="650" type="qcurve" smooth="yes"/>
      <point x="294" y="667"/>
      <point x="269" y="683"/>
      <point x="243" y="683" type="qcurve" smooth="yes"/>
      <point x="200" y="683" type="line"/>
      <point x="216" y="758" type="line"/>
      <point x="281" y="758" type="line" smooth="yes"/>
      <point x="385" y="758"/>
      <point x="385" y="677" type="qcurve" smooth="yes"/>
      <point x="385" y="658"/>
      <point x="380" y="634" type="qcurve" smooth="yes"/>
      <point x="343" y="460" type="line" smooth="yes"/>
      <point x="339" y="444"/>
      <point x="339" y="428" type="qcurve" smooth="yes"/>
      <point x="339" y="401"/>
      <point x="374" y="378"/>
      <point x="414" y="377" type="qcurve"/>
      <point x="395" y="298" type="line"/>
      <point x="346" y="297"/>
      <point x="299" y="259"/>
      <point x="290" y="215" type="qcurve" smooth="yes"/>
      <point x="252" y="34" type="line" smooth="yes"/>
      <point x="239" y="-27"/>
      <point x="167" y="-86"/>
      <point x="105" y="-86" type="qcurve" smooth="yes"/>
      <point x="36" y="-86" type="line"/>
    </contour>
  </outline>
</glyph>
<glyph name="sterling" format="2">
  <advance width="505"/>
  <unicode hex="00A3"/>
  <outline>
    <contour>
      <point x="538" y="652"/>
      <point x="538" y="593" type="qcurve" smooth="yes"/>
      <point x="538" y="569"/>
      <point x="532" y="550" type="qcurve"/>
      <point x="443" y="550" type="line"/>
      <point x="446" y="562"/>
      <point x="446" y="574" type="qcurve" smooth="yes"/>
      <point x="446" y="603"/>
      <point x="406" y="634"/>
      <point x="369" y="634" type="qcurve" smooth="yes"/>
      <point x="278" y="634"/>
      <point x="256" y="531" type="qcurve" smooth="yes"/>
      <point x="223" y="375" type="line"/>
      <point x="393" y="375" type="line"/>
      <point x="376" y="293" type="line"/>
      <point x="206" y="293" type="line"/>
      <point x="184" y="190" type="line" smooth="yes"/>
      <point x="169" y="118"/>
      <point x="124" y="84" type="qcurve"/>
      <point x="437" y="84" type="line"/>
      <point x="420" y="0" type="line"/>
      <point x="-2" y="0" type="line"/>
      <point x="15" y="78" type="line"/>
      <point x="46" y="91"/>
      <point x="80" y="139"/>
      <point x="88" y="180" type="qcurve" smooth="yes"/>
      <point x="112" y="293" type="line"/>
      <point x="38" y="293" type="line"/>
      <point x="55" y="375" type="line"/>
      <point x="129" y="375" type="line"/>
      <point x="161" y="523" type="line" smooth="yes"/>
      <point x="181" y="616"/>
      <point x="293" y="717"/>
      <point x="382" y="717" type="qcurve" smooth="yes"/>
      <point x="455" y="717"/>
    </contour>
  </outline>
</glyph>
<glyph name="paragraph" format="2">
  <advance width="654"/>
  <unicode hex="00B6"/>
  <outline>
    <contour>
      <point x="326" y="279" type="line"/>
      <point x="324" y="279" type="line" smooth="yes"/>
      <point x="230" y="279"/>
      <point x="119" y="368"/>
      <point x="119" y="440" type="qcurve" smooth="yes"/>
      <point x="119" y="470"/>
      <point x="125" y="498" type="qcurve" smooth="yes"/>
      <point x="145" y="595"/>
      <point x="298" y="707"/>
      <point x="412" y="707" type="qcurve" smooth="yes"/>
      <point x="674" y="707" type="line"/>
      <point x="490" y="-157" type="line"/>
      <point x="409" y="-157" type="line"/>
      <point x="575" y="629" type="line"/>
      <point x="482" y="629" type="line"/>
      <point x="315" y="-157" type="line"/>
      <point x="233" y="-157" type="line"/>
    </contour>
  </outline>
</glyph>
<glyph name="onehalf" format="2">
  <advance width="922"/>
  <unicode hex="00BD"/>
  <outline>
    <contour>
      <point x="641" y="709" type="line"/>
      <point x="719" y="709" type="line"/>
      <point x="191" y="0" type="line"/>
      <point x="115" y="0" type="line"/>
    </contour>
    <contour>
      <point x="210" y="624" type="line"/>
      <point x="109" y="568" type="line"/>
      <point x="126" y="652" type="line"/>
      <point x="227" y="707" type="line"/>
      <point x="309" y="707" type="line"/>
      <point x="218" y="279" type="line"/>
      <point x="137" y="279" type="line"/>
    </contour>
    <contour>
      <point x="536" y="62" type="line"/>
      <point x="732" y="234" type="line" smooth="yes"/>
      <point x="761" y="259"/>
      <point x="788" y="302"/>
      <point x="788" y="324" type="qcurve" smooth="yes"/>
      <point x="788" y="346"/>
      <point x="760" y="369"/>
      <point x="734" y="369" type="qcurve" smooth="yes"/>
      <point x="704" y="369"/>
      <point x="667" y="340"/>
      <point x="663" y="312" type="qcurve" smooth="yes"/>
      <point x="660" y="303" type="line"/>
      <point x="584" y="303" type="line"/>
      <point x="586" y="314" type="line" smooth="yes"/>
      <point x="596" y="371"/>
      <point x="680" y="435"/>
      <point x="744" y="435" type="qcurve" smooth="yes"/>
      <point x="803" y="435"/>
      <point x="872" y="382"/>
      <point x="872" y="336" type="qcurve" smooth="yes"/>
      <point x="872" y="293"/>
      <point x="825" y="223"/>
      <point x="781" y="186" type="qcurve" smooth="yes"/>
      <point x="653" y="70" type="line"/>
      <point x="819" y="70" type="line"/>
      <point x="804" y="0" type="line"/>
      <point x="522" y="0" type="line"/>
    </contour>
  </outline>
</glyph>
<glyph name="Eth" format="2">
  <advance width="744"/>
  <unicode hex="00D0"/>
  <outline>
    <contour>
      <point x="723" y="598"/>
      <point x="723" y="492" type="qcurve" smooth="yes"/>
      <point x="723" y="451"/>
      <point x="712" y="397" type="qcurve" smooth="yes"/>
      <point x="690" y="294" type="line" smooth="yes"/>
      <point x="657" y="141"/>
      <point x="489" y="0"/>
      <point x="352" y="0" type="qcurve" smooth="yes"/>
      <point x="72" y="0" type="line"/>
      <point x="139" y="316" type="line"/>
      <point x="47" y="316" type="line"/>
      <point x="65" y="399" type="line"/>
      <point x="157" y="399" type="line"/>
      <point x="222" y="707" type="line"/>
      <point x="472" y="707" type="line" smooth="yes"/>
      <point x="591" y="707"/>
    </contour>
    <contour>
      <point x="629" y="480" type="qcurve" smooth="yes"/>
      <point x="629" y="553"/>
      <point x="545" y="624"/>
      <point x="460" y="624" type="qcurve" smooth="yes"/>
      <point x="298" y="624" type="line"/>
      <point x="250" y="399" type="line"/>
      <point x="418" y="399" type="line"/>
      <point x="400" y="316" type="line"/>
      <point x="232" y="316" type="line"/>
      <point x="182" y="83" type="line"/>
      <point x="361" y="83" type="line" smooth="yes"/>
      <point x="459" y="83"/>
      <point x="573" y="183"/>
      <point x="597" y="297" type="qcurve" smooth="yes"/>
      <point x="618" y="397" type="line" smooth="yes"/>
      <point x="629" y="448"/>
    </contour>
  </outline>
</glyph>
<glyph name="ae" format="2">
  <advance width="933"/>
  <unicode hex="00E6"/>
  <outline>
    <contour>
      <point x="31" y="126" type="qcurve" smooth="yes"/>
      <point x="31" y="212"/>
      <point x="158" y="303"/>
      <point x="267" y="303" type="qcurve" smooth="yes"/>
      <point x="425" y="303" type="line"/>
      <point x="437" y="358"/>
      <point x="437" y="376" type="qcurve" smooth="yes"/>
      <point x="437" y="460"/>
      <point x="323" y="460" type="qcurve" smooth="yes"/>
      <point x="263" y="460"/>
      <point x="193" y="414"/>
      <point x="184" y="372" type="qcurve"/>
      <point x="98" y="372" type="line"/>
      <point x="114" y="447"/>
      <point x="241" y="530"/>
      <point x="337" y="530" type="qcurve" smooth="yes"/>
      <point x="461" y="530"/>
      <point x="505" y="462" type="qcurve"/>
      <point x="538" y="498"/>
      <point x="634" y="532"/>
      <point x="691" y="532" type="qcurve" smooth="yes"/>
      <point x="785" y="532"/>
      <point x="891" y="442"/>
      <point x="891" y="357" type="qcurve" smooth="yes"/>
      <point x="891" y="323"/>
      <point x="884" y="288" type="qcurve" smooth="yes"/>
      <point x="874" y="242" type="line"/>
      <point x="502" y="242" type="line"/>
      <point x="498" y="222" type="line" smooth="yes"/>
      <point x="493" y="193"/>
      <point x="493" y="176" type="qcurve" smooth="yes"/>
      <point x="493" y="121"/>
      <point x="563" y="68"/>
      <point x="622" y="68" type="qcurve" smooth="yes"/>
      <point x="738" y="68"/>
      <point x="767" y="165" type="qcurve"/>
      <point x="855" y="165" type="line"/>
      <point x="832" y="79"/>
      <point x="711" y="-9"/>
      <point x="621" y="-9" type="qcurve" smooth="yes"/>
      <point x="478" y="-9"/>
      <point x="429" y="85" type="qcurve"/>
      <point x="356" y="-8"/>
      <point x="213" y="-8" type="qcurve" smooth="yes"/>
      <point x="127" y="-8"/>
      <point x="31" y="62"/>
    </contour>
    <contour>
      <point x="800" y="305" type="line"/>
      <point x="807" y="341"/>
      <point x="807" y="357" type="qcurve" smooth="yes"/>
      <point x="807" y="405"/>
      <point x="740" y="456"/>
      <point x="683" y="456" type="qcurve" smooth="yes"/>
      <point x="548" y="456"/>
      <point x="517" y="321" type="qcurve" smooth="yes"/>
      <point x="514" y="305" type="line"/>
    </contour>
    <contour>
      <point x="403" y="203" type="qcurve" smooth="yes"/>
      <point x="412" y="240" type="line"/>
      <point x="269" y="240" type="line" smooth="yes"/>
      <point x="197" y="240"/>
      <point x="118" y="188"/>
      <point x="118" y="139" type="qcurve" smooth="yes"/>
      <point x="118" y="63"/>
      <point x="229" y="63" type="qcurve" smooth="yes"/>
      <point x="304" y="63"/>
      <point x="389" y="133"/>
    </contour>
  </outline>
</glyph>
<glyph name="ccedilla" format="2">
  <advance width="567"/>
  <unicode hex="00E7"/>
  <outline>
    <contour>
      <point x="441" y="343" type="line"/>
      <point x="442" y="358" type="line"/>
      <point x="442" y="454"/>
      <point x="323" y="455" type="qcurve" smooth="yes"/>
      <point x="254" y="455"/>
      <point x="168" y="383"/>
      <point x="151" y="300" type="qcurve" smooth="yes"/>
      <point x="138" y="245" type="line" smooth="yes"/>
      <point x="132" y="213"/>
      <point x="132" y="187" type="qcurve" smooth="yes"/>
      <point x="132" y="68"/>
      <point x="262" y="69" type="qcurve" smooth="yes"/>
      <point x="322" y="69"/>
      <point x="398" y="125"/>
      <point x="409" y="179" type="qcurve"/>
      <point x="494" y="179" type="line"/>
      <point x="482" y="99"/>
      <point x="374" y="0"/>
      <point x="289" y="-8" type="qcurve"/>
      <point x="197" y="-156" type="line"/>
      <point x="105" y="-156" type="line"/>
      <point x="211" y="-6" type="line"/>
      <point x="134" y="4"/>
      <point x="45" y="96"/>
      <point x="45" y="179" type="qcurve" smooth="yes"/>
      <point x="45" y="210"/>
      <point x="52" y="247" type="qcurve" smooth="yes"/>
      <point x="65" y="307" type="line" smooth="yes"/>
      <point x="89" y="420"/>
      <point x="222" y="532"/>
      <point x="327" y="532" type="qcurve" smooth="yes"/>
      <point x="419" y="532"/>
      <point x="528" y="449"/>
      <point x="528" y="369" type="qcurve" smooth="yes"/>
      <point x="528" y="354"/>
      <point x="527" y="343" type="qcurve"/>
    </contour>
  </outline>
</glyph>
<glyph name="divide" format="2">
  <advance width="527"/>
  <unicode hex="00F7"/>
  <outline>
    <contour>
      <point x="210" y="413"/>
      <point x="210" y="436" type="qcurve" smooth="yes"/>
      <point x="210" y="459"/>
      <point x="242" y="490"/>
      <point x="264" y="490" type="qcurve" smooth="yes"/>
      <point x="288" y="490"/>
      <point x="319" y="459"/>
      <point x="319" y="436" type="qcurve" smooth="yes"/>
      <point x="319" y="412"/>
      <point x="288" y="381"/>
      <point x="264" y="381" type="qcurve" smooth="yes"/>
      <point x="242" y="381"/>
    </contour>
    <contour>
      <point x="59" y="324" type="line"/>
      <point x="477" y="324" type="line"/>
      <point x="477" y="242" type="line"/>
      <point x="59" y="242" type="line"/>
    </contour>
    <contour>
      <point x="210" y="109"/>
      <point x="210" y="131" type="qcurve" smooth="yes"/>
      <point x="210" y="155"/>
      <point x="242" y="186"/>
      <point x="264" y="186" type="qcurve" smooth="yes"/>
      <point x="288" y="186"/>
      <point x="319" y="155"/>
      <point x="319" y="131" type="qcurve" smooth="yes"/>
      <point x="319" y="107"/>
      <point x="288" y="76"/>
      <point x="264" y="76" type="qcurve" smooth="yes"/>
      <point x="242" y="76"/>
    </contour>
  </outline>
</glyph>
<glyph name="IJ" format="2">
  <advance width="712"/>
  <unicode hex="0132"/>
  <outline>
    <contour>
      <point x="732" y="707" type="line"/>
      <point x="636" y="253" type="line" smooth="yes"/>
      <point x="618" y="171"/>
      <point x="580" y="107"/>
      <point x="521" y="62" type="curve" smooth="yes"/>
      <point x="462" y="17"/>
      <point x="388" y="-6"/>
      <point x="300" y="-6" type="curve" smooth="yes"/>
      <point x="212" y="-6"/>
      <point x="148" y="17"/>
      <point x="108" y="62" type="curve" smooth="yes"/>
      <point x="85" y="88"/>
      <point x="72" y="121"/>
      <point x="68" y="160" type="curve"/>
      <point x="167" y="160" type="line"/>
      <point x="182" y="104"/>
      <point x="232" y="76"/>
      <point x="317" y="76" type="curve" smooth="yes"/>
      <point x="442" y="76"/>
      <point x="518" y="137"/>
      <point x="544" y="259" type="curve" smooth="yes"/>
      <point x="639" y="707" type="line"/>
    </contour>
    <contour>
      <point x="264" y="707" type="line"/>
      <point x="182" y="320" type="line"/>
      <point x="89" y="320" type="line"/>
      <point x="171" y="707" type="line"/>
    </contour>
  </outline>
</glyph>
<glyph name="Uogonek" format="2">
  <advance width="708"/>
  <unicode hex="0172"/>
  <outline>
    <component base="U"/>
    <contour>
      <point x="352" y="16" type="line"/>
      <point x="422" y="16" type="line"/>
      <point x="252" y="-80" type="line"/>
      <point x="279" y="-115"/>
      <point x="336" y="-130"/>
      <point x="392" y="-132" type="curve"/>
      <point x="374" y="-217" type="line"/>
      <point x="290" y="-216"/>
      <point x="227" y="-192"/>
      <point x="185" y="-147" type="curve" smooth="yes"/>
      <point x="164" y="-123"/>
      <point x="152" y="-93"/>
      <point x="147" y="-56" type="curve"/>
    </contour>
  </outline>
</glyph>
<glyph name="lbar" format="2">
  <advance width="309"/>
  <unicode hex="019A"/>
  <outline>
    <component base="l"/>
    <contour>
      <point x="40" y="396" type="line"/>
      <point x="310" y="396" type="line"/>
      <point x="293" y="313" type="line"/>
      <point x="23" y="313" type="line"/>
    </contour>
  </outline>
</glyph>
<glyph name="Ocenteredtilde" format="2">
  <advance width="309"/>
  <unicode hex="019F"/>
  <outline>
    <component base="O"/>
    <contour>
      <point x="160" y="396" type="line"/>
      <point x="606" y="396" type="line"/>
      <point x="589" y="313" type="line"/>
      <point x="143" y="313" type="line"/>
    </contour>
  </outline>
</glyph>
<glyph name="circumflex" format="2">
  <advance width="505"/>
  <unicode hex="02C6"/>
  <outline>
    <contour>
      <point x="317" y="730" type="line"/>
      <point x="385" y="730" type="line"/>
      <point x="484" y="581" type="line"/>
      <point x="407" y="581" type="line"/>
      <point x="343" y="673" type="line"/>
      <point x="240" y="581" type="line"/>
      <point x="156" y="581" type="line"/>
    </contour>
  </outline>
</glyph>
<glyph name="circumflexcmb" format="2">
  <unicode hex="0302"/>
  <outline>
    <contour>
      <point x="62" y="730" type="line"/>
      <point x="130" y="730" type="line"/>
      <point x="229" y="581" type="line"/>
      <point x="152" y="581" type="line"/>
      <point x="88" y="673" type="line"/>
      <point x="-16" y="581" type="line"/>
      <point x="-100" y="581" type="line"/>
    </contour>
  </outline>
</glyph>
<glyph name="macroncmb" format="2">
  <unicode hex="0304"/>
  <outline>
    <contour>
      <point x="-72" y="683" type="line"/>
      <point x="237" y="683" type="line"/>
      <point x="219" y="604" type="line"/>
      <point x="-88" y="604" type="line"/>
    </contour>
  </outline>
</glyph>
<glyph name="fraction" format="2">
  <advance width="592"/>
  <unicode hex="2044"/>
  <outline>
    <contour>
      <point x="557" y="708" type="line"/>
      <point x="632" y="708" type="line"/>
      <point x="56" y="0" type="line"/>
      <point x="-22" y="0" type="line"/>
    </contour>
  </outline>
</glyph>
<glyph name="Euro" format="2">
  <advance width="626"/>
  <unicode hex="20AC"/>
  <outline>
    <contour>
      <point x="99" y="80"/>
      <point x="99" y="158" type="qcurve" smooth="yes"/>
      <point x="99" y="188"/>
      <point x="106" y="225" type="qcurve" smooth="yes"/>
      <point x="113" y="257" type="line"/>
      <point x="46" y="257" type="line"/>
      <point x="59" y="323" type="line"/>
      <point x="127" y="323" type="line"/>
      <point x="141" y="389" type="line"/>
      <point x="74" y="389" type="line"/>
      <point x="88" y="455" type="line"/>
      <point x="155" y="455" type="line"/>
      <point x="163" y="493" type="line" smooth="yes"/>
      <point x="187" y="597"/>
      <point x="322" y="717"/>
      <point x="429" y="717" type="qcurve" smooth="yes"/>
      <point x="522" y="717"/>
      <point x="623" y="629"/>
      <point x="623" y="544" type="qcurve"/>
      <point x="540" y="544" type="line"/>
      <point x="540" y="637"/>
      <point x="421" y="637" type="qcurve" smooth="yes"/>
      <point x="347" y="637"/>
      <point x="268" y="563"/>
      <point x="253" y="492" type="qcurve" smooth="yes"/>
      <point x="245" y="455" type="line"/>
      <point x="490" y="455" type="line"/>
      <point x="463" y="389" type="line"/>
      <point x="230" y="389" type="line"/>
      <point x="217" y="323" type="line"/>
      <point x="435" y="323" type="line"/>
      <point x="409" y="257" type="line"/>
      <point x="202" y="257" type="line"/>
      <point x="195" y="223" type="line" smooth="yes"/>
      <point x="190" y="199"/>
      <point x="189" y="173" type="qcurve" smooth="yes"/>
      <point x="189" y="124"/>
      <point x="250" y="70"/>
      <point x="311" y="70" type="qcurve" smooth="yes"/>
      <point x="428" y="70"/>
      <point x="459" y="163" type="qcurve"/>
      <point x="544" y="163" type="line"/>
      <point x="524" y="80"/>
      <point x="396" y="-10"/>
      <point x="302" y="-10" type="qcurve" smooth="yes"/>
      <point x="207" y="-10"/>
    </contour>
  </outline>
</glyph>
